<svg xmlns="http://www.w3.org/2000/svg" xmlns:xlink="http://www.w3.org/1999/xlink" width="184" height="45.905" viewBox="0 0 184 45.905"><defs><path id="a" d="M-10.787 0h204.864v45.905H-10.787z"/></defs><clipPath id="b"><use xlink:href="#a" overflow="visible"/></clipPath><path clip-path="url(#b)" fill="#FFF" d="M-10.787 0h204.864v45.905H-10.787V0z"/><path clip-path="url(#b)" fill-rule="evenodd" clip-rule="evenodd" fill="#E11837" d="M24.107 30.35l2.772.97 2.673-8.682-5.446 7.713zM19.998 28.91l.374.132 12.782-18.1.362-1.173-13.518 19.14zM21.196 29.33l.877.308 9.442-13.37.845-2.745L21.196 29.33zM22.63 29.833l1.1.386 6.184-8.756 1.063-3.448-8.346 11.817z"/><path clip-path="url(#b)" fill-rule="evenodd" clip-rule="evenodd" fill="#034EA2" d="M18.48 28.942l.527-.087L32.82 9.297l-1.012.772-13.33 18.872zM16.08 29.334l1.237-.202 12.265-17.366-2.368 1.805L16.08 29.335zM13.74 29.717l1.554-.254L25.706 14.72l-2.975 2.268-8.99 12.73zM3.926 31.32l9.286-1.517 8.506-12.043L3.926 31.32zM162.478 18.3c.472.8.6 2.707-.127 4.033h-4.55c.437-.872.572-1.962-.28-1.962h-2.225l-.61 1.963h-6.637l1.897-6.03h9.698c1.472.035 2.526 1.18 2.835 1.997zM161.786 23.623c-.874 1.066-2.095 2.017-4.196 2.017h-3.948l-1.412 4.487h-6.634l2.045-6.504h14.146zM128.665 16.3l.66 6.033h-11.052l4.292-6.032h6.1zM129.468 23.623l.725 6.503h-5.667l-.253-2.27h-4.666l-1.62 2.27h-5.26l4.627-6.503h5.26l-.72 1.017h2.02l-.113-1.017h5.668zM36.988 16.302H50.41l-1.292 4.106h-3.396l-.604 1.92h-6.63l.603-1.92h-3.395l1.293-4.106zm7.726 7.315l-2.047 6.51h-6.63l2.046-6.51h6.63zM146.118 22.333h-11.79l.225-.708h4.517c-.254-.6-3.19-1.228-4.99-.592l1.513-4.804c4.832-1.49 13.01-1.387 10.525 6.103zM145.61 23.623c-2.617 7.558-9.595 8.032-14.173 5.815l1.452-4.618c1.4.6 5.216.62 5.416-.525h-4.597l.21-.672h11.69zM115.7 16.5l-1.423 4.525c-2.344-.51-5.873-.346-7.145 1.307h-6.194c.563-1.653 2.07-3.597 3.615-4.705 2.49-2.034 8.295-2.78 11.147-1.127zM106.637 23.623c-.14.697.277 1.235.93 1.435 1.127.38 4.624.313 5.514-.232l-1.46 4.642c-1.87.672-7.03 2.476-9.828-.503-1.18-1.363-1.944-3.053-1.272-5.34h6.117v-.002zM101.166 16.3l-1.897 6.033H83.364l1.897-6.032h6.63l-1.658 5.288h2.634l1.66-5.287h6.638zM98.862 23.623l-2.044 6.503-6.617-.018 1.8-5.76h-2.64l-1.817 5.778h-6.63l2.044-6.503h15.905zM78.593 16.3l.658 6.033H68.2l4.292-6.032h6.1zM79.396 23.623l.725 6.503h-5.666l-.254-2.27h-4.666l-1.618 2.27h-5.26l4.626-6.503h5.26l-.72 1.017h2.02l-.113-1.017h5.666zM65.13 18.3c.474.8.6 2.707-.126 4.033h-4.55c.436-.872.572-1.962-.282-1.962H57.95l-.613 1.963H50.7l1.898-6.03h9.7c1.47.035 2.524 1.18 2.833 1.997zM64.44 23.623c-.875 1.066-2.096 2.017-4.196 2.017h-3.95l-1.41 4.487H48.25l2.046-6.504H64.44zM169.223 30.774c-4.222 0-6.694-3.164-5.695-7.15h5.49c-.117 1.1.64 1.915 1.852 1.915 1.213 0 2.48-.816 3.056-1.917h5.49c-1.51 3.988-5.972 7.15-10.193 7.15zm-5.255-8.44c1.63-3.825 5.96-6.825 10.06-6.825 4.1 0 6.543 3 5.768 6.824h-5.558c-.058-.924-.774-1.59-1.856-1.59-1.083 0-2.215.666-2.856 1.59h-5.558zM113.745 35.9c.716.127 1.194.625.944 1.345-.263.762-1.192 1.236-1.962 1.236h-.617c-.49 0-.98-.054-1.47-.054-.142 0-.275.04-.418.04-.11 0-.146-.037-.126-.092.033-.1.415-.093.526-.11a.247.247 0 0 0 .146-.092c.066-.077.17-.19.218-.344l1.07-3.507c.072-.232.026-.377-.19-.377-.055 0-.126.01-.22.017-.123.012-.242.01-.236-.047.013-.104.22-.127.527-.17.33-.047.683-.04 1.12-.04h.617c.464 0 1.188.097 1.436.563.2.38.047.712-.2 1.017-.26.32-.77.545-1.165.618zm-1.054-1.488l-.362 1.18c-.053.173-.064.292.145.292h.636c.198 0 .382-.05.562-.146.343-.18.657-.464.764-.854.053-.196.073-.394.018-.58-.105-.358-.694-.456-1-.456-.168 0-.536.044-.635.22-.033.056-.08.184-.13.344zm-1.034 3.342c-.055.197-.067.467.2.51.33.05.744.07 1.07 0 .505-.113.937-.647 1.09-1.11.164-.49-.047-.94-.545-1.07a2.6 2.6 0 0 0-.652-.09h-.455c-.12 0-.262.148-.29.253l-.417 1.507zM146.063 34.522c.108-.344.072-.332-.28-.37-.12-.013-.158-.066-.108-.162.027-.053.123-.085.215-.092.123-.01.25.007.373.007h4.232c.128 0 .184.037.164.108a.184.184 0 0 1-.165.127c-.147.017-.347-.003-.472.09a.58.58 0 0 0-.182.292l-1.035 3.324c-.06.192-.082.388.164.418.096.012.186.027.235.036.06.012.118.032.107.087-.014.075-.107.095-.234.095-.25 0-.444-.054-.763-.054-.255 0-.513.054-.763.054-.164 0-.244-.01-.218-.09.02-.063.073-.083.164-.09.092-.01.18-.03.272-.037.255-.023.35-.26.418-.472l1.126-3.56h-2.507l-1.126 3.578c-.068.22-.09.413 0 .437.11.03.254.013.366.033.065.012.136.028.107.112-.018.055-.09.09-.2.09-.256 0-.52-.053-.78-.053-.365 0-.518.034-.855.054-.082.005-.158-.04-.158-.09 0-.066.05-.11.167-.124.08-.01.183-.01.32-.013.178-.002.317-.23.363-.374l1.053-3.36zM168.9 36.14c-.176.035-.305.16-.42.29l-1.343 1.544c-.19.217-.287.286-.563.31-.127.01-.217.046-.236.108-.018.06.038.073.13.073h.815c.162 0 .336-.302.417-.4l1.38-1.653c.125-.148.292-.218.564-.218h.182c.142 0 .123.117.09.218l-.49 1.543a.545.545 0 0 1-.2.274c-.122.07-.294.017-.43.04-.09.016-.156.042-.17.122-.01.06.02.073.146.073.264 0 .532-.055.8-.055.274 0 .547.055.817.055.108 0 .164-.022.18-.055.05-.098-.026-.11-.108-.11h-.126c-.25 0-.35-.158-.273-.398l1.09-3.47c.116-.37.21-.382.545-.382a.89.89 0 0 0 .2-.018c.035-.01.092-.022.11-.072.018-.055-.03-.06-.12-.067-.168-.013-.433-.005-.644-.005h-1.134c-.342 0-.74.01-1.066.128-.422.154-.873.604-.987 1.005a.76.76 0 0 0 .136.72c.145.18.343.363.707.4zm1.617-1.708l-.473 1.544c-.027.09-.126.127-.254.127-.3 0-.56 0-.835-.145-.152-.08-.23-.233-.27-.394-.04-.16-.015-.352.034-.533.086-.33.235-.548.49-.737.27-.2.575-.31.91-.316.102 0 .267-.01.36.036.166.084.077.285.037.42zM156.62 34.377c.076-.24-.063-.293-.273-.31-.055-.003-.298.013-.273-.09.026-.104.233-.072.308-.072h1.472c.164 0 .227.005.21.068-.02.08-.163.07-.247.076-.105.01-.257.01-.352.066a.633.633 0 0 0-.23.315l-.38 1.164c-.055.164-.093.272.108.272h2.197c.2 0 .182-.118.237-.272l.436-1.236c.043-.12.025-.222-.044-.25a.9.9 0 0 0-.315-.056c-.146-.003-.213-.007-.205-.076.007-.05.11-.075.272-.075l1.544.003c.146 0 .154.032.146.072-.01.054-.037.064-.128.072-.09.01-.162.025-.27.036-.214.02-.317.104-.383.31l-1.126 3.506c-.08.253-.012.337.237.362.058.005.15.024.238.036.07.01.098.037.09.073-.015.078-.108.092-.272.092-.256 0-.49-.07-.753-.07-.26 0-.55.066-.812.066-.144 0-.216-.007-.192-.08.02-.06.087-.072.177-.08.11-.01.198-.03.272-.036.25-.023.347-.197.418-.418l.51-1.58c.047-.15-.05-.182-.183-.182h-2.09c-.203 0-.25.043-.308.218l-.51 1.563c-.063.197-.053.34.056.38a.744.744 0 0 0 .236.037c.07 0 .256-.02.218.09-.018.055-.055.092-.182.092-.274 0-.555-.073-.835-.073-.273 0-.547.072-.818.072-.128 0-.187-.02-.165-.09.02-.064.09-.092.218-.092.124 0 .207-.006.327-.036.114-.028.258-.223.29-.327l1.13-3.54zM117.05 34.414c.074-.227.055-.307-.163-.357-.1-.022-.335.006-.272-.15.015-.04.11-.074.29-.074.2 0 .4.02.6.02h.837c.164 0 .246.03.236.084-.02.11-.167.114-.29.114-.246 0-.537.11-.62.365l-1.103 3.44 3.884-3.695c-.076-.07-.313-.084-.4-.09-.146-.013-.225-.057-.2-.147.01-.04.11-.066.254-.067l1.634-.005c.146 0 .206.033.2.073-.01.087-.083.122-.164.127-.11.008-.18.02-.272.02-.228 0-.373.144-.437.344l-1.108 3.506c-.042.132-.05.232 0 .29.102.124.315.092.454.11.075.01.12.038.11.09-.01.058-.11.092-.254.092-.27 0-.544-.072-.817-.072-.28 0-.56.072-.837.072-.163 0-.236-.036-.218-.09s.11-.092.182-.092c.19 0 .42-.002.563-.145a.98.98 0 0 0 .163-.31c.042-.124 1.108-3.45 1.108-3.45l-3.85 3.687c-.078.074-.082.154.054.18 0 0 .146.038.236.038.077 0 .333-.06.273.09-.02.055-.073.092-.2.092-.275 0-.555-.072-.835-.072-.25 0-.502.072-.745.072-.127 0-.18-.036-.164-.09.02-.073.09-.11.217-.11.337 0 .427-.072.527-.382l1.127-3.506zM123.173 36.792c-.072 0-.117.007-.145.036-.03.03-.08.116-.182.254l-.51.69c-.038.053-.1.114-.145.236-.047.14.04.23.202.273.118.033.25 0 .364.038.033.01.042.037.035.072-.01.056-.09.09-.234.09-.19 0-.385-.053-.58-.053-.258 0-.514.054-.764.054-.11 0-.167-.018-.146-.072.04-.1.154-.11.255-.11a.73.73 0 0 0 .33-.07c.086-.045.22-.162.36-.365l2.78-3.997c.076-.108.11-.163.146-.163.037 0 .073.017.073.036 0 .035.01.072.018.144l.4 3.997c.018.183.047.302.127.347a.623.623 0 0 0 .272.072c.11.008.157.052.146.108-.008.036-.074.055-.164.055h-1.8c-.09 0-.103-.034-.09-.09a.088.088 0 0 1 .09-.074c.146 0 .393.02.527-.037.06-.026.105-.092.127-.164a.855.855 0 0 0 .037-.328l-.072-.78c-.008-.093-.042-.142-.054-.165-.008-.017-.073-.036-.164-.036h-1.237v.002zm.31-.218h.87c.074 0 .104.012.13.02.052.012.09-.02.09-.056 0 0-.005-.108-.02-.29l-.09-1.145c-.013-.164-.036-.254-.072-.254s-.097.066-.2.217l-.834 1.235c-.06.088-.116.178-.145.236-.007.016.032.055.073.055.057 0 .127-.02.2-.02zM128.296 34.414c.037-.146.046-.245 0-.29-.116-.117-.292-.056-.436-.074-.074-.01-.113-.055-.09-.108.013-.038.07-.073.18-.073h1.69c.08 0 .152.01.127.108-.01.04-.035.062-.09.072-.188.038-.337-.022-.528.073-.088.043-.155.124-.2.272l-.49 1.617a.876.876 0 0 0-.037.145.688.688 0 0 0 .182-.11l1.943-1.49c.206-.156.307-.272.328-.344.016-.056.018-.09-.018-.11-.037-.018-.092-.006-.182-.018-.08-.01-.167-.022-.164-.108.004-.075.073-.11.164-.11h1.49c.11 0 .13.034.127.092a.096.096 0 0 1-.09.09c-.18 0-.35.004-.527.035-.217.04-.482.19-.762.4l-1.29.963c-.114.084-.168.144-.183.2a.4.4 0 0 0 .056.164l1.053 2.09c.125.248.287.37.562.398.032.003.12.014.11.073-.012.056-.11.09-.237.09-.28 0-.567-.054-.854-.054-.292 0-.583.054-.87.054-.075 0-.113-.02-.092-.073.015-.036.037-.065.072-.07.153-.026.306-.006.456-.055.18-.06.182-.23.108-.382l-.745-1.525a2.22 2.22 0 0 0-.128-.236c-.03-.046-.062-.072-.11-.036l-.453.346s-.03.02-.038.036a.688.688 0 0 0-.037.09l-.436 1.398c-.047.15-.017.23.09.292.108.062.275.03.398.055.054.01.063.037.055.073-.01.056-.11.09-.254.09-.265 0-.532-.054-.8-.054-.25 0-.5.055-.745.055-.146 0-.194-.035-.182-.09.02-.1.18-.092.254-.092.108 0 .29-.003.38-.072.094-.07.126-.164.165-.29l1.074-3.51zM132.783 35.068c.66-.8 1.792-1.417 2.834-1.417.908 0 1.82.44 1.963 1.418.105.728-.212 1.494-.637 2.07-.62.845-1.765 1.4-2.816 1.4-.87 0-1.75-.486-1.96-1.38-.166-.702.175-1.554.616-2.09zm.02 1.998c.048.777.632 1.253 1.398 1.253.866 0 1.675-.58 2.144-1.272.392-.578.72-1.48.545-2.18-.164-.652-.69-.98-1.346-.98-.865 0-1.686.532-2.162 1.234-.346.512-.62 1.322-.58 1.944zM140.65 37.447l2.397-3.233c.063-.084.157-.22.236-.29.056-.05.127-.055.2-.055h.818c.064 0 .23-.026.2.09-.023.1-.177.09-.254.09-.22 0-.385.07-.454.29l-1.09 3.507a.403.403 0 0 0 0 .29c.072.167.16.146.327.146.066 0 .163-.004.144.09-.01.057-.09.092-.2.092-.273 0-.554-.055-.834-.055-.245 0-.487.055-.727.055-.146 0-.19-.034-.183-.09.01-.055.09-.092.237-.092a.91.91 0 0 0 .38-.09c.09-.04.195-.184.255-.382l1.072-3.505h-.072l-2.743 3.815c-.142.196-.268.338-.293 0l-.27-3.724h-.055l-1.182 3.215c-.08.218-.153.58.163.637.092.017.183.026.255.036.056.008.072.055.054.11-.018.054-.073.072-.182.072-.237 0-.482-.055-.727-.055-.202 0-.4.055-.6.055-.09 0-.123-.017-.107-.055.02-.053.09-.1.236-.11.272-.017.464-.137.563-.398l1.344-3.58c.084-.226-.107-.272-.292-.272-.074 0-.2.007-.18-.09.02-.106.166-.09.235-.09h.835c.183 0 .168.207.182.344l.31 3.233zM107.08 36.784c-.073 0-.116.008-.146.036-.028.03-.08.117-.18.254l-.51.69c-.04.054-.102.114-.146.237-.05.14.038.23.2.273.118.03.25-.002.364.036.034.01.043.036.036.07-.012.058-.09.092-.237.092-.188 0-.382-.055-.58-.055-.256 0-.51.055-.763.055-.11 0-.166-.02-.146-.073.04-.1.155-.11.256-.11a.71.71 0 0 0 .327-.073c.087-.044.222-.16.363-.363l2.78-3.997c.074-.108.11-.164.145-.164.038 0 .074.018.074.036 0 .036.01.072.02.144l.398 3.997c.018.183.048.302.127.346a.65.65 0 0 0 .27.073c.11.008.158.052.147.108-.007.036-.074.055-.164.055h-1.8c-.09 0-.1-.035-.09-.09a.088.088 0 0 1 .09-.073c.148 0 .394.02.528-.037.062-.026.107-.092.128-.164a.853.853 0 0 0 .037-.328l-.072-.782c-.01-.092-.043-.14-.055-.164-.007-.016-.073-.036-.163-.036h-1.236v.004zm.31-.218h.87c.073 0 .103.012.128.018.053.013.09-.018.09-.054 0 0-.002-.11-.018-.29l-.09-1.146c-.013-.164-.037-.254-.073-.254s-.098.067-.2.218l-.834 1.236c-.06.087-.116.177-.146.236-.008.016.03.054.072.054.056 0 .126-.018.2-.018zM151.82 36.792c-.072 0-.117.007-.145.036-.03.03-.08.116-.183.254l-.508.69c-.04.053-.1.114-.146.236-.048.14.04.23.2.273.12.033.25 0 .364.038.034.01.044.037.036.072-.01.056-.09.09-.236.09-.19 0-.385-.053-.58-.053-.258 0-.513.054-.764.054-.11 0-.167-.018-.146-.072.04-.1.154-.11.254-.11.118 0 .223-.02.328-.07.087-.045.222-.162.363-.365l2.78-3.997c.075-.108.108-.163.146-.163.037 0 .072.017.072.036 0 .035.01.072.02.144l.398 3.997c.017.183.047.302.127.347a.623.623 0 0 0 .272.072c.11.008.156.052.146.108-.008.036-.073.055-.164.055h-1.8c-.09 0-.1-.034-.09-.09a.088.088 0 0 1 .09-.074c.148 0 .395.02.528-.037.06-.026.105-.092.127-.164a.874.874 0 0 0 .035-.328l-.073-.78c-.008-.093-.042-.142-.054-.165-.008-.017-.072-.036-.164-.036h-1.234v.002zm.31-.218h.87c.075 0 .104.012.128.02.053.012.09-.02.09-.056 0 0-.002-.108-.017-.29l-.09-1.145c-.013-.164-.035-.254-.072-.254-.037 0-.098.066-.2.217l-.835 1.235c-.06.088-.116.178-.145.236-.008.016.032.055.072.055.057 0 .126-.02.2-.02zM162.47 34.414c.074-.227.054-.307-.164-.357-.1-.022-.334.006-.27-.15.014-.04.108-.074.29-.074.2 0 .4.02.6.02h.835c.164 0 .247.03.238.084-.02.11-.17.114-.292.114-.245 0-.535.11-.618.365l-1.104 3.44 3.884-3.695c-.075-.07-.312-.084-.4-.09-.145-.013-.225-.057-.2-.147.012-.04.11-.066.254-.067l1.635-.005c.146 0 .205.033.2.073-.01.087-.083.122-.164.127-.11.008-.18.02-.272.02-.227 0-.372.144-.436.344l-1.108 3.506c-.042.132-.05.232 0 .29.103.124.315.092.455.11.075.01.118.038.11.09-.01.058-.11.092-.256.092-.27 0-.543-.072-.817-.072-.28 0-.558.072-.836.072-.163 0-.235-.036-.217-.09.02-.056.11-.092.183-.092.188 0 .42-.002.563-.145a.997.997 0 0 0 .163-.31l1.108-3.45-3.852 3.687c-.077.074-.08.154.055.18 0 0 .146.038.236.038.075 0 .332-.06.272.09-.02.055-.072.092-.2.092-.275 0-.556-.072-.835-.072-.25 0-.502.072-.746.072-.125 0-.177-.036-.162-.09.02-.073.09-.11.218-.11.337 0 .427-.072.527-.382l1.128-3.506z"/></svg>