<?xml version="1.0" encoding="utf-8"?>
<!-- Generator: Adobe Illustrator 16.0.0, SVG Export Plug-In . SVG Version: 6.00 Build 0)  -->
<!DOCTYPE svg PUBLIC "-//W3C//DTD SVG 1.1//EN" "http://www.w3.org/Graphics/SVG/1.1/DTD/svg11.dtd">
<svg version="1.1" id="Layer_1" xmlns="http://www.w3.org/2000/svg" xmlns:xlink="http://www.w3.org/1999/xlink" x="0px" y="0px"
	 width="184px" height="45.905px" viewBox="0 0 184 45.905" enable-background="new 0 0 184 45.905" xml:space="preserve">
<g>
	<g>
		<defs>
			<rect id="SVGID_1_" x="-10.787" width="204.864" height="45.905"/>
		</defs>
		<clipPath id="SVGID_2_">
			<use xlink:href="#SVGID_1_"  overflow="visible"/>
		</clipPath>
		<polygon clip-path="url(#SVGID_2_)" fill="#FFFFFF" points="-10.787,0 194.077,0 194.077,45.905 -10.787,45.905 -10.787,0 		"/>
		<polygon clip-path="url(#SVGID_2_)" fill-rule="evenodd" clip-rule="evenodd" fill="#E11837" points="24.107,30.351 
			26.879,31.321 29.553,22.638 24.107,30.351 		"/>
		<polygon clip-path="url(#SVGID_2_)" fill-rule="evenodd" clip-rule="evenodd" fill="#E11837" points="19.998,28.91 20.372,29.042 
			33.154,10.943 33.516,9.769 19.998,28.91 		"/>
		<polygon clip-path="url(#SVGID_2_)" fill-rule="evenodd" clip-rule="evenodd" fill="#E11837" points="21.196,29.331 
			22.073,29.638 31.515,16.268 32.36,13.523 21.196,29.331 		"/>
		<polygon clip-path="url(#SVGID_2_)" fill-rule="evenodd" clip-rule="evenodd" fill="#E11837" points="22.631,29.833 
			23.731,30.219 29.914,21.464 30.977,18.016 22.631,29.833 		"/>
		<polygon clip-path="url(#SVGID_2_)" fill-rule="evenodd" clip-rule="evenodd" fill="#034EA2" points="18.479,28.942 
			19.007,28.855 32.821,9.297 31.808,10.069 18.479,28.942 		"/>
		<polygon clip-path="url(#SVGID_2_)" fill-rule="evenodd" clip-rule="evenodd" fill="#034EA2" points="16.081,29.334 
			17.317,29.132 29.582,11.766 27.214,13.571 16.081,29.334 		"/>
		<polygon clip-path="url(#SVGID_2_)" fill-rule="evenodd" clip-rule="evenodd" fill="#034EA2" points="13.741,29.717 
			15.294,29.463 25.706,14.72 22.731,16.988 13.741,29.717 		"/>
		<polygon clip-path="url(#SVGID_2_)" fill-rule="evenodd" clip-rule="evenodd" fill="#034EA2" points="3.926,31.321 13.212,29.803 
			21.718,17.76 3.926,31.321 		"/>
		<path clip-path="url(#SVGID_2_)" fill-rule="evenodd" clip-rule="evenodd" fill="#034EA2" d="M162.478,18.3
			c0.472,0.799,0.6,2.707-0.127,4.033h-4.551c0.437-0.872,0.572-1.962-0.281-1.962h-2.224l-0.611,1.962h-6.636l1.897-6.031h9.698
			C161.115,16.338,162.169,17.482,162.478,18.3L162.478,18.3z"/>
		<path clip-path="url(#SVGID_2_)" fill-rule="evenodd" clip-rule="evenodd" fill="#034EA2" d="M161.786,23.623
			c-0.874,1.066-2.095,2.017-4.196,2.017h-3.948l-1.412,4.487h-6.634l2.045-6.504H161.786L161.786,23.623z"/>
		<polygon clip-path="url(#SVGID_2_)" fill-rule="evenodd" clip-rule="evenodd" fill="#034EA2" points="128.665,16.301 
			129.324,22.333 118.273,22.333 122.565,16.301 128.665,16.301 		"/>
		<polygon clip-path="url(#SVGID_2_)" fill-rule="evenodd" clip-rule="evenodd" fill="#034EA2" points="129.468,23.623 
			130.193,30.126 124.526,30.126 124.273,27.855 119.607,27.855 117.988,30.126 112.728,30.126 117.354,23.623 122.615,23.623 
			121.893,24.64 123.914,24.64 123.801,23.623 129.468,23.623 		"/>
		<path clip-path="url(#SVGID_2_)" fill-rule="evenodd" clip-rule="evenodd" fill="#034EA2" d="M36.988,16.302H50.41l-1.292,4.106
			h-3.396l-0.604,1.921h-6.631l0.604-1.921h-3.396L36.988,16.302L36.988,16.302z M44.714,23.617l-2.047,6.51h-6.63l2.046-6.51
			H44.714L44.714,23.617z"/>
		<path clip-path="url(#SVGID_2_)" fill-rule="evenodd" clip-rule="evenodd" fill="#034EA2" d="M146.118,22.333h-11.789l0.224-0.708
			h4.517c-0.254-0.6-3.19-1.228-4.989-0.592l1.512-4.804C140.425,14.739,148.604,14.843,146.118,22.333L146.118,22.333z"/>
		<path clip-path="url(#SVGID_2_)" fill-rule="evenodd" clip-rule="evenodd" fill="#034EA2" d="M145.609,23.623
			c-2.616,7.558-9.594,8.032-14.172,5.815l1.452-4.618c1.4,0.6,5.217,0.62,5.417-0.525h-4.597l0.212-0.672H145.609L145.609,23.623z"
			/>
		<path clip-path="url(#SVGID_2_)" fill-rule="evenodd" clip-rule="evenodd" fill="#034EA2" d="M115.7,16.5l-1.423,4.525
			c-2.344-0.509-5.873-0.346-7.145,1.307h-6.194c0.563-1.653,2.07-3.597,3.615-4.705C107.042,15.593,112.848,14.847,115.7,16.5
			L115.7,16.5z"/>
		<path clip-path="url(#SVGID_2_)" fill-rule="evenodd" clip-rule="evenodd" fill="#034EA2" d="M106.637,23.623
			c-0.141,0.697,0.277,1.235,0.931,1.435c1.126,0.381,4.623,0.313,5.513-0.232l-1.46,4.642c-1.871,0.672-7.032,2.476-9.829-0.503
			c-1.181-1.363-1.944-3.053-1.272-5.341H106.637L106.637,23.623z"/>
		<polygon clip-path="url(#SVGID_2_)" fill-rule="evenodd" clip-rule="evenodd" fill="#034EA2" points="101.166,16.301 
			99.269,22.333 83.365,22.333 85.262,16.301 91.891,16.301 90.234,21.588 92.868,21.588 94.527,16.301 101.166,16.301 		"/>
		<polygon clip-path="url(#SVGID_2_)" fill-rule="evenodd" clip-rule="evenodd" fill="#034EA2" points="98.862,23.623 
			96.818,30.126 90.201,30.108 92,24.349 89.36,24.349 87.543,30.126 80.912,30.126 82.957,23.623 98.862,23.623 		"/>
		<polygon clip-path="url(#SVGID_2_)" fill-rule="evenodd" clip-rule="evenodd" fill="#034EA2" points="78.593,16.301 
			79.251,22.333 68.201,22.333 72.492,16.301 78.593,16.301 		"/>
		<polygon clip-path="url(#SVGID_2_)" fill-rule="evenodd" clip-rule="evenodd" fill="#034EA2" points="79.396,23.623 
			80.121,30.126 74.454,30.126 74.2,27.855 69.534,27.855 67.916,30.126 62.656,30.126 67.282,23.623 72.543,23.623 71.821,24.64 
			73.841,24.64 73.729,23.623 79.396,23.623 		"/>
		<path clip-path="url(#SVGID_2_)" fill-rule="evenodd" clip-rule="evenodd" fill="#034EA2" d="M65.131,18.3
			c0.473,0.799,0.6,2.707-0.127,4.033h-4.55c0.436-0.872,0.572-1.962-0.282-1.962h-2.223l-0.612,1.962h-6.636l1.897-6.031h9.699
			C63.769,16.338,64.822,17.482,65.131,18.3L65.131,18.3z"/>
		<path clip-path="url(#SVGID_2_)" fill-rule="evenodd" clip-rule="evenodd" fill="#034EA2" d="M64.44,23.623
			c-0.875,1.066-2.096,2.017-4.196,2.017h-3.949l-1.411,4.487H48.25l2.046-6.504H64.44L64.44,23.623z"/>
		<path clip-path="url(#SVGID_2_)" fill-rule="evenodd" clip-rule="evenodd" fill="#034EA2" d="M169.223,30.774
			c-4.222,0-6.694-3.164-5.695-7.151h5.49c-0.117,1.101,0.639,1.916,1.852,1.916c1.213,0,2.481-0.815,3.056-1.916h5.49
			C177.905,27.611,173.444,30.774,169.223,30.774L169.223,30.774z M163.968,22.334c1.629-3.825,5.961-6.825,10.06-6.825
			c4.099,0,6.543,3,5.768,6.825h-5.558c-0.058-0.924-0.774-1.589-1.856-1.589c-1.083,0-2.215,0.665-2.856,1.589H163.968
			L163.968,22.334z"/>
		<path clip-path="url(#SVGID_2_)" fill-rule="evenodd" clip-rule="evenodd" fill="#034EA2" d="M113.745,35.901
			c0.716,0.126,1.194,0.624,0.944,1.344c-0.262,0.762-1.191,1.236-1.961,1.236h-0.617c-0.49,0-0.98-0.055-1.472-0.055
			c-0.141,0-0.274,0.039-0.417,0.039c-0.109,0-0.146-0.036-0.126-0.091c0.033-0.1,0.415-0.093,0.526-0.111
			c0.054-0.008,0.104-0.042,0.146-0.091c0.066-0.077,0.17-0.189,0.218-0.344l1.071-3.507c0.071-0.233,0.025-0.378-0.192-0.378
			c-0.054,0-0.125,0.01-0.218,0.017c-0.124,0.012-0.243,0.011-0.237-0.047c0.013-0.104,0.22-0.127,0.527-0.17
			c0.329-0.047,0.683-0.04,1.119-0.04h0.618c0.464,0,1.188,0.097,1.436,0.563c0.2,0.379,0.047,0.712-0.201,1.017
			C114.649,35.603,114.14,35.828,113.745,35.901L113.745,35.901z M112.691,34.412l-0.363,1.181
			c-0.053,0.172-0.064,0.291,0.145,0.291h0.636c0.199,0,0.383-0.05,0.563-0.146c0.343-0.181,0.657-0.464,0.764-0.854
			c0.053-0.196,0.073-0.394,0.018-0.581c-0.105-0.357-0.694-0.455-1-0.455c-0.168,0-0.536,0.044-0.635,0.219
			C112.787,34.124,112.74,34.252,112.691,34.412L112.691,34.412z M111.656,37.754c-0.055,0.197-0.067,0.467,0.199,0.509
			c0.331,0.05,0.745,0.072,1.072,0c0.504-0.112,0.936-0.646,1.089-1.108c0.164-0.492-0.047-0.94-0.545-1.072
			c-0.167-0.044-0.399-0.09-0.653-0.09h-0.455c-0.121,0-0.262,0.149-0.291,0.254L111.656,37.754L111.656,37.754z"/>
		<path clip-path="url(#SVGID_2_)" fill-rule="evenodd" clip-rule="evenodd" fill="#034EA2" d="M146.063,34.522
			c0.108-0.344,0.072-0.332-0.279-0.37c-0.121-0.013-0.159-0.066-0.109-0.162c0.027-0.053,0.123-0.085,0.215-0.092
			c0.123-0.009,0.249,0.007,0.373,0.007h4.232c0.128,0,0.184,0.037,0.164,0.108c-0.016,0.056-0.071,0.118-0.164,0.127
			c-0.147,0.017-0.347-0.003-0.472,0.091c-0.073,0.054-0.141,0.159-0.182,0.291l-1.036,3.324c-0.059,0.192-0.082,0.388,0.164,0.418
			c0.097,0.012,0.187,0.027,0.236,0.036c0.061,0.012,0.118,0.032,0.107,0.087c-0.014,0.075-0.107,0.095-0.234,0.095
			c-0.25,0-0.444-0.054-0.763-0.054c-0.255,0-0.513,0.054-0.763,0.054c-0.164,0-0.244-0.011-0.218-0.091
			c0.02-0.062,0.073-0.082,0.164-0.09c0.092-0.009,0.18-0.028,0.272-0.036c0.255-0.023,0.351-0.261,0.418-0.472l1.126-3.561h-2.507
			l-1.126,3.579c-0.069,0.219-0.09,0.412,0,0.436c0.11,0.03,0.253,0.013,0.365,0.033c0.065,0.012,0.136,0.028,0.107,0.112
			c-0.018,0.055-0.091,0.091-0.2,0.091c-0.256,0-0.52-0.054-0.781-0.054c-0.364,0-0.517,0.035-0.854,0.055
			c-0.082,0.005-0.158-0.041-0.158-0.089c0.001-0.067,0.051-0.11,0.167-0.125c0.08-0.01,0.183-0.011,0.319-0.013
			c0.179-0.002,0.318-0.229,0.364-0.374L146.063,34.522L146.063,34.522z"/>
		<path clip-path="url(#SVGID_2_)" fill-rule="evenodd" clip-rule="evenodd" fill="#034EA2" d="M168.9,36.139
			c-0.176,0.036-0.305,0.16-0.419,0.292l-1.344,1.543c-0.189,0.217-0.287,0.286-0.563,0.309c-0.127,0.011-0.217,0.047-0.236,0.109
			c-0.018,0.059,0.038,0.073,0.129,0.073h0.816c0.162,0,0.336-0.302,0.417-0.399l1.381-1.654c0.124-0.148,0.291-0.218,0.563-0.218
			h0.182c0.142,0,0.123,0.117,0.091,0.218l-0.491,1.543c-0.042,0.133-0.143,0.241-0.199,0.274c-0.123,0.07-0.295,0.018-0.431,0.041
			c-0.089,0.016-0.156,0.042-0.169,0.122c-0.01,0.061,0.018,0.073,0.145,0.073c0.264,0,0.532-0.055,0.8-0.055
			c0.274,0,0.547,0.055,0.817,0.055c0.109,0,0.165-0.022,0.182-0.055c0.049-0.098-0.027-0.109-0.109-0.109c-0.054,0-0.109,0-0.126,0
			c-0.251,0-0.35-0.159-0.273-0.399l1.09-3.47c0.116-0.37,0.21-0.382,0.545-0.382c0.091,0,0.161-0.008,0.2-0.018
			c0.035-0.009,0.092-0.022,0.109-0.072c0.019-0.055-0.028-0.061-0.119-0.067c-0.168-0.013-0.433-0.005-0.644-0.005h-1.134
			c-0.342,0-0.74,0.01-1.066,0.128c-0.422,0.154-0.873,0.604-0.987,1.005c-0.07,0.241-0.045,0.498,0.136,0.719
			C168.338,35.919,168.536,36.103,168.9,36.139L168.9,36.139z M170.517,34.432l-0.473,1.544c-0.027,0.089-0.126,0.127-0.254,0.127
			c-0.301,0-0.56,0.001-0.835-0.145c-0.152-0.081-0.229-0.233-0.27-0.394c-0.04-0.16-0.015-0.352,0.034-0.533
			c0.087-0.33,0.236-0.549,0.49-0.738c0.271-0.201,0.576-0.309,0.912-0.316c0.101-0.001,0.266-0.011,0.359,0.036
			C170.646,34.097,170.557,34.298,170.517,34.432L170.517,34.432z"/>
		<path clip-path="url(#SVGID_2_)" fill-rule="evenodd" clip-rule="evenodd" fill="#034EA2" d="M156.619,34.377
			c0.077-0.241-0.062-0.293-0.272-0.309c-0.055-0.004-0.298,0.012-0.273-0.091c0.026-0.104,0.233-0.072,0.308-0.072h1.472
			c0.164,0,0.227,0.005,0.21,0.068c-0.021,0.08-0.163,0.069-0.247,0.076c-0.105,0.01-0.257,0.011-0.352,0.067
			c-0.109,0.066-0.197,0.216-0.229,0.315l-0.382,1.163c-0.054,0.164-0.092,0.272,0.109,0.272h2.197c0.2,0,0.182-0.118,0.237-0.272
			l0.436-1.236c0.043-0.121,0.025-0.222-0.044-0.249c-0.077-0.028-0.167-0.054-0.314-0.057c-0.146-0.003-0.213-0.007-0.205-0.076
			c0.007-0.05,0.109-0.075,0.272-0.075l1.544,0.002c0.146,0,0.154,0.032,0.146,0.072c-0.011,0.054-0.037,0.064-0.128,0.072
			c-0.091,0.009-0.162,0.025-0.271,0.036c-0.213,0.021-0.316,0.104-0.382,0.31l-1.127,3.506c-0.081,0.254-0.012,0.338,0.237,0.363
			c0.057,0.005,0.149,0.024,0.237,0.036c0.071,0.01,0.098,0.037,0.09,0.073c-0.015,0.077-0.108,0.091-0.272,0.091
			c-0.256,0-0.491-0.069-0.753-0.069c-0.26,0-0.55,0.065-0.812,0.065c-0.145,0-0.217-0.007-0.193-0.079
			c0.02-0.062,0.087-0.073,0.177-0.081c0.11-0.01,0.198-0.03,0.272-0.036c0.249-0.023,0.347-0.197,0.418-0.418l0.509-1.58
			c0.048-0.149-0.05-0.182-0.182-0.182h-2.089c-0.204,0-0.251,0.043-0.309,0.218l-0.509,1.563c-0.064,0.197-0.054,0.341,0.055,0.381
			c0.038,0.014,0.127,0.036,0.236,0.036c0.069,0,0.256-0.021,0.218,0.091c-0.018,0.054-0.055,0.091-0.182,0.091
			c-0.274,0-0.555-0.073-0.835-0.073c-0.273,0-0.547,0.073-0.818,0.073c-0.127,0-0.186-0.02-0.164-0.091
			c0.019-0.063,0.091-0.091,0.218-0.091c0.124,0,0.207-0.006,0.327-0.036c0.114-0.028,0.258-0.223,0.291-0.327L156.619,34.377
			L156.619,34.377z"/>
		<path clip-path="url(#SVGID_2_)" fill-rule="evenodd" clip-rule="evenodd" fill="#034EA2" d="M117.051,34.414
			c0.073-0.227,0.054-0.307-0.164-0.357c-0.1-0.022-0.335,0.006-0.272-0.151c0.015-0.038,0.109-0.073,0.291-0.073
			c0.199,0,0.399,0.019,0.6,0.019c0.279,0,0.558,0,0.836,0c0.164,0,0.246,0.031,0.236,0.085c-0.019,0.11-0.167,0.114-0.291,0.114
			c-0.245,0-0.536,0.108-0.618,0.364l-1.104,3.441l3.884-3.696c-0.075-0.07-0.312-0.084-0.399-0.091
			c-0.146-0.012-0.225-0.056-0.2-0.146c0.011-0.039,0.109-0.066,0.254-0.067l1.634-0.005c0.146,0,0.206,0.032,0.2,0.072
			c-0.011,0.087-0.083,0.122-0.164,0.127c-0.11,0.008-0.181,0.019-0.272,0.019c-0.228,0-0.373,0.145-0.437,0.345l-1.108,3.506
			c-0.042,0.132-0.049,0.232,0,0.291c0.102,0.123,0.315,0.091,0.454,0.109c0.074,0.009,0.118,0.038,0.109,0.091
			c-0.009,0.057-0.109,0.091-0.254,0.091c-0.27,0-0.544-0.072-0.817-0.072c-0.279,0-0.558,0.072-0.836,0.072
			c-0.163,0-0.236-0.036-0.218-0.091s0.109-0.091,0.182-0.091c0.189,0,0.42-0.002,0.563-0.145c0.036-0.037,0.114-0.162,0.163-0.309
			c0.042-0.125,1.108-3.452,1.108-3.452l-3.852,3.688c-0.077,0.074-0.081,0.154,0.055,0.181c0,0,0.146,0.037,0.236,0.037
			c0.077,0,0.333-0.06,0.273,0.091c-0.021,0.054-0.073,0.091-0.199,0.091c-0.276,0-0.556-0.072-0.836-0.072
			c-0.251,0-0.502,0.072-0.745,0.072c-0.127,0-0.18-0.036-0.164-0.091c0.021-0.072,0.091-0.109,0.218-0.109
			c0.337,0,0.427-0.072,0.527-0.382L117.051,34.414L117.051,34.414z"/>
		<path clip-path="url(#SVGID_2_)" fill-rule="evenodd" clip-rule="evenodd" fill="#034EA2" d="M123.173,36.792
			c-0.072,0-0.117,0.007-0.145,0.036c-0.029,0.029-0.081,0.116-0.182,0.254l-0.509,0.691c-0.039,0.052-0.102,0.113-0.146,0.235
			c-0.048,0.139,0.039,0.229,0.201,0.273c0.118,0.032,0.249-0.002,0.364,0.037c0.033,0.011,0.042,0.037,0.035,0.072
			c-0.011,0.056-0.09,0.091-0.235,0.091c-0.19,0-0.385-0.054-0.581-0.054c-0.257,0-0.513,0.054-0.763,0.054
			c-0.109,0-0.167-0.019-0.146-0.073c0.04-0.1,0.154-0.109,0.255-0.109c0.117,0,0.222-0.021,0.328-0.072
			c0.087-0.044,0.222-0.161,0.362-0.364l2.779-3.997c0.076-0.108,0.109-0.163,0.146-0.163c0.037,0,0.073,0.017,0.073,0.036
			c0,0.036,0.011,0.073,0.019,0.145l0.4,3.997c0.018,0.182,0.047,0.301,0.127,0.346c0.085,0.047,0.163,0.063,0.272,0.072
			c0.11,0.009,0.157,0.053,0.146,0.109c-0.008,0.036-0.074,0.055-0.164,0.055h-1.799c-0.09,0-0.103-0.034-0.09-0.091
			c0.007-0.036,0.036-0.073,0.09-0.073c0.146,0,0.393,0.021,0.527-0.036c0.06-0.026,0.105-0.092,0.127-0.164
			c0.033-0.11,0.047-0.218,0.037-0.327l-0.073-0.781c-0.008-0.092-0.042-0.141-0.054-0.164c-0.008-0.017-0.073-0.036-0.164-0.036
			H123.173L123.173,36.792z M123.482,36.574h0.872c0.073,0,0.103,0.012,0.128,0.019c0.053,0.013,0.09-0.019,0.09-0.055
			c0,0-0.004-0.108-0.018-0.291l-0.091-1.144c-0.013-0.164-0.036-0.254-0.072-0.254s-0.098,0.067-0.2,0.218l-0.835,1.235
			c-0.059,0.088-0.116,0.178-0.145,0.236c-0.008,0.016,0.031,0.055,0.072,0.055C123.34,36.593,123.41,36.574,123.482,36.574
			L123.482,36.574z"/>
		<path clip-path="url(#SVGID_2_)" fill-rule="evenodd" clip-rule="evenodd" fill="#034EA2" d="M128.296,34.414L128.296,34.414
			c0.037-0.146,0.046-0.245,0-0.291c-0.116-0.116-0.292-0.055-0.436-0.073c-0.074-0.009-0.113-0.055-0.091-0.108
			c0.014-0.038,0.072-0.073,0.181-0.073h1.69c0.079,0,0.152,0.01,0.127,0.109c-0.01,0.04-0.035,0.062-0.091,0.072
			c-0.187,0.038-0.336-0.022-0.527,0.073c-0.087,0.043-0.154,0.124-0.2,0.272l-0.49,1.617c-0.021,0.071-0.036,0.126-0.036,0.145
			c0.055-0.019,0.109-0.054,0.182-0.109l1.943-1.49c0.206-0.157,0.307-0.273,0.328-0.345c0.016-0.056,0.018-0.091-0.018-0.109
			c-0.037-0.019-0.092-0.007-0.182-0.019c-0.079-0.009-0.167-0.022-0.164-0.108c0.004-0.075,0.073-0.109,0.164-0.109h1.49
			c0.109,0,0.131,0.033,0.127,0.091c-0.005,0.06-0.055,0.09-0.09,0.09c-0.181,0-0.349,0.005-0.527,0.036
			c-0.217,0.039-0.482,0.191-0.762,0.4l-1.291,0.963c-0.113,0.084-0.167,0.144-0.182,0.2c-0.004,0.018,0.014,0.083,0.055,0.164
			l1.053,2.089c0.126,0.249,0.288,0.372,0.563,0.399c0.032,0.003,0.121,0.014,0.109,0.073c-0.011,0.056-0.109,0.091-0.236,0.091
			c-0.281,0-0.567-0.055-0.854-0.055c-0.293,0-0.584,0.055-0.872,0.055c-0.074,0-0.112-0.02-0.091-0.073
			c0.015-0.037,0.037-0.066,0.072-0.072c0.153-0.025,0.306-0.005,0.456-0.054c0.18-0.061,0.182-0.231,0.108-0.382l-0.745-1.525
			c-0.064-0.131-0.104-0.202-0.127-0.236c-0.031-0.046-0.062-0.072-0.109-0.036l-0.454,0.346c0,0-0.029,0.02-0.037,0.036
			c-0.011,0.022-0.026,0.056-0.037,0.09l-0.436,1.398c-0.046,0.149-0.016,0.231,0.09,0.292c0.109,0.062,0.276,0.03,0.399,0.055
			c0.054,0.011,0.063,0.037,0.055,0.073c-0.011,0.056-0.109,0.091-0.254,0.091c-0.264,0-0.531-0.055-0.8-0.055
			c-0.25,0-0.499,0.055-0.744,0.055c-0.146,0-0.194-0.035-0.182-0.091c0.02-0.1,0.18-0.091,0.254-0.091
			c0.108,0,0.291-0.003,0.381-0.072c0.093-0.07,0.125-0.164,0.164-0.291L128.296,34.414L128.296,34.414z"/>
		<path clip-path="url(#SVGID_2_)" fill-rule="evenodd" clip-rule="evenodd" fill="#034EA2" d="M132.783,35.068
			c0.659-0.8,1.792-1.417,2.834-1.417c0.908,0,1.819,0.44,1.963,1.417c0.105,0.728-0.212,1.494-0.637,2.071
			c-0.621,0.844-1.765,1.398-2.816,1.398c-0.87,0-1.75-0.485-1.961-1.38C132.001,36.456,132.342,35.604,132.783,35.068
			L132.783,35.068z M132.802,37.066c0.049,0.777,0.633,1.253,1.399,1.253c0.865,0,1.674-0.579,2.143-1.271
			c0.392-0.578,0.719-1.481,0.545-2.18c-0.163-0.652-0.69-0.981-1.345-0.981c-0.865,0-1.686,0.533-2.162,1.235
			C133.036,35.634,132.763,36.444,132.802,37.066L132.802,37.066z"/>
		<path clip-path="url(#SVGID_2_)" fill-rule="evenodd" clip-rule="evenodd" fill="#034EA2" d="M140.65,37.447l2.397-3.233
			c0.063-0.084,0.157-0.221,0.236-0.291c0.056-0.048,0.127-0.054,0.2-0.054h0.818c0.063,0,0.229-0.025,0.199,0.091
			c-0.023,0.099-0.177,0.09-0.254,0.09c-0.219,0-0.385,0.069-0.454,0.291l-1.09,3.506c-0.04,0.126-0.031,0.22,0,0.291
			c0.072,0.166,0.161,0.145,0.327,0.145c0.067,0,0.164-0.004,0.145,0.091c-0.011,0.056-0.09,0.091-0.199,0.091
			c-0.274,0-0.555-0.055-0.835-0.055c-0.245,0-0.487,0.055-0.727,0.055c-0.146,0-0.191-0.034-0.183-0.091
			c0.009-0.054,0.091-0.091,0.237-0.091c0.145,0,0.271-0.04,0.381-0.09c0.089-0.04,0.194-0.184,0.254-0.382l1.072-3.506h-0.072
			l-2.743,3.815c-0.141,0.196-0.267,0.338-0.292,0l-0.271-3.724h-0.054l-1.182,3.215c-0.08,0.217-0.153,0.579,0.163,0.636
			c0.092,0.017,0.183,0.026,0.255,0.036c0.056,0.008,0.072,0.055,0.054,0.109c-0.018,0.055-0.073,0.073-0.182,0.073
			c-0.237,0-0.482-0.055-0.727-0.055c-0.202,0-0.401,0.055-0.599,0.055c-0.091,0-0.124-0.017-0.108-0.055
			c0.021-0.053,0.091-0.099,0.236-0.109c0.272-0.018,0.464-0.138,0.563-0.399l1.344-3.579c0.085-0.227-0.106-0.273-0.291-0.273
			c-0.074,0-0.199,0.007-0.181-0.09c0.02-0.106,0.167-0.091,0.236-0.091h0.835c0.183,0,0.168,0.208,0.182,0.345L140.65,37.447
			L140.65,37.447z"/>
		<path clip-path="url(#SVGID_2_)" fill-rule="evenodd" clip-rule="evenodd" fill="#034EA2" d="M107.079,36.784
			c-0.072,0-0.115,0.008-0.145,0.036c-0.028,0.029-0.08,0.117-0.181,0.254l-0.51,0.691c-0.039,0.053-0.101,0.113-0.145,0.236
			c-0.049,0.138,0.038,0.228,0.2,0.272c0.118,0.031,0.249-0.002,0.364,0.036c0.034,0.011,0.043,0.037,0.036,0.072
			c-0.012,0.057-0.091,0.091-0.237,0.091c-0.189,0-0.383-0.055-0.581-0.055c-0.256,0-0.511,0.055-0.763,0.055
			c-0.109,0-0.166-0.019-0.146-0.073c0.04-0.1,0.154-0.109,0.255-0.109c0.117,0,0.222-0.021,0.327-0.073
			c0.087-0.044,0.222-0.161,0.363-0.363l2.78-3.997c0.074-0.108,0.109-0.164,0.145-0.164c0.037,0,0.073,0.018,0.073,0.036
			c0,0.037,0.011,0.073,0.019,0.145l0.399,3.997c0.018,0.182,0.048,0.301,0.127,0.345c0.086,0.047,0.165,0.063,0.272,0.073
			c0.11,0.009,0.157,0.053,0.146,0.109c-0.007,0.036-0.074,0.055-0.164,0.055h-1.799c-0.091,0-0.102-0.035-0.091-0.091
			c0.007-0.036,0.036-0.072,0.091-0.072c0.147,0,0.393,0.02,0.527-0.037c0.061-0.026,0.106-0.092,0.127-0.164
			c0.033-0.11,0.047-0.217,0.037-0.327l-0.072-0.782c-0.009-0.092-0.043-0.14-0.055-0.164c-0.007-0.016-0.073-0.036-0.163-0.036
			H107.079L107.079,36.784z M107.389,36.566h0.872c0.072,0,0.102,0.012,0.127,0.018c0.053,0.013,0.091-0.018,0.091-0.054
			c0,0-0.003-0.109-0.019-0.291l-0.09-1.145c-0.013-0.164-0.037-0.254-0.073-0.254c-0.036,0-0.098,0.067-0.199,0.218l-0.835,1.236
			c-0.06,0.087-0.116,0.177-0.146,0.236c-0.008,0.016,0.031,0.054,0.072,0.054C107.246,36.584,107.316,36.566,107.389,36.566
			L107.389,36.566z"/>
		<path clip-path="url(#SVGID_2_)" fill-rule="evenodd" clip-rule="evenodd" fill="#034EA2" d="M151.82,36.792
			c-0.072,0-0.117,0.007-0.145,0.036c-0.029,0.029-0.081,0.116-0.183,0.254l-0.508,0.691c-0.039,0.052-0.101,0.113-0.146,0.235
			c-0.048,0.139,0.039,0.229,0.201,0.273c0.118,0.032,0.249-0.002,0.363,0.037c0.034,0.011,0.044,0.037,0.036,0.072
			c-0.011,0.056-0.09,0.091-0.236,0.091c-0.19,0-0.385-0.054-0.581-0.054c-0.257,0-0.512,0.054-0.763,0.054
			c-0.109,0-0.167-0.019-0.146-0.073c0.04-0.1,0.154-0.109,0.254-0.109c0.118,0,0.223-0.021,0.328-0.072
			c0.087-0.044,0.222-0.161,0.363-0.364l2.78-3.997c0.075-0.108,0.108-0.163,0.146-0.163c0.037,0,0.072,0.017,0.072,0.036
			c0,0.036,0.011,0.073,0.019,0.145l0.399,3.997c0.017,0.182,0.047,0.301,0.127,0.346c0.085,0.047,0.163,0.063,0.272,0.072
			c0.11,0.009,0.156,0.053,0.146,0.109c-0.008,0.036-0.073,0.055-0.164,0.055h-1.799c-0.09,0-0.102-0.034-0.09-0.091
			c0.007-0.036,0.036-0.073,0.09-0.073c0.147,0,0.394,0.021,0.527-0.036c0.06-0.026,0.105-0.092,0.127-0.164
			c0.032-0.11,0.046-0.218,0.036-0.327l-0.073-0.781c-0.008-0.092-0.042-0.141-0.054-0.164c-0.008-0.017-0.072-0.036-0.164-0.036
			H151.82L151.82,36.792z M152.129,36.574h0.872c0.074,0,0.103,0.012,0.127,0.019c0.053,0.013,0.091-0.019,0.091-0.055
			c0,0-0.003-0.108-0.018-0.291l-0.091-1.144c-0.013-0.164-0.035-0.254-0.072-0.254c-0.037,0-0.098,0.067-0.199,0.218l-0.836,1.235
			c-0.059,0.088-0.116,0.178-0.145,0.236c-0.008,0.016,0.032,0.055,0.072,0.055C151.987,36.593,152.056,36.574,152.129,36.574
			L152.129,36.574z"/>
		<path clip-path="url(#SVGID_2_)" fill-rule="evenodd" clip-rule="evenodd" fill="#034EA2" d="M162.471,34.414
			c0.073-0.227,0.053-0.307-0.165-0.357c-0.1-0.022-0.334,0.006-0.271-0.151c0.015-0.038,0.109-0.073,0.291-0.073
			c0.199,0,0.399,0.019,0.599,0.019c0.279,0,0.558,0,0.836,0c0.163,0,0.246,0.031,0.237,0.085c-0.019,0.11-0.169,0.114-0.292,0.114
			c-0.245,0-0.535,0.108-0.618,0.364l-1.104,3.441l3.884-3.696c-0.075-0.07-0.312-0.084-0.399-0.091
			c-0.146-0.012-0.226-0.056-0.201-0.146c0.012-0.039,0.109-0.066,0.254-0.067l1.635-0.005c0.146,0,0.205,0.032,0.2,0.072
			c-0.011,0.087-0.083,0.122-0.164,0.127c-0.11,0.008-0.181,0.019-0.272,0.019c-0.228,0-0.373,0.145-0.437,0.345l-1.108,3.506
			c-0.042,0.132-0.049,0.232,0,0.291c0.103,0.123,0.315,0.091,0.455,0.109c0.074,0.009,0.117,0.038,0.108,0.091
			c-0.01,0.057-0.108,0.091-0.255,0.091c-0.269,0-0.543-0.072-0.817-0.072c-0.279,0-0.558,0.072-0.836,0.072
			c-0.164,0-0.236-0.036-0.218-0.091c0.019-0.055,0.109-0.091,0.183-0.091c0.188,0,0.42-0.002,0.563-0.145
			c0.036-0.037,0.114-0.162,0.164-0.309c0.041-0.125,1.108-3.452,1.108-3.452l-3.853,3.688c-0.077,0.074-0.081,0.154,0.055,0.181
			c0,0,0.146,0.037,0.236,0.037c0.076,0,0.333-0.06,0.273,0.091c-0.021,0.054-0.072,0.091-0.199,0.091
			c-0.276,0-0.557-0.072-0.836-0.072c-0.251,0-0.502,0.072-0.746,0.072c-0.126,0-0.178-0.036-0.163-0.091
			c0.021-0.072,0.091-0.109,0.218-0.109c0.337,0,0.427-0.072,0.527-0.382L162.471,34.414L162.471,34.414z"/>
	</g>
</g>
</svg>
